<svg xmlns="http://www.w3.org/2000/svg" xmlns:xlink="http://www.w3.org/1999/xlink" width="1200" height="900" viewBox="0 0 1200 900">
  <defs>
    <linearGradient id="bg" x1="0" y1="0" x2="1" y2="1"><stop offset="0" stop-color="#101b2d"/><stop offset="1" stop-color="#1b4d70"/></linearGradient>
    <clipPath id="screenClip"><rect x="650" y="118" width="478" height="574" rx="26"/></clipPath>
    <filter id="shadow" x="-20%" y="-20%" width="140%" height="150%"><feDropShadow dx="0" dy="16" stdDeviation="16" flood-color="#06101e" flood-opacity=".35"/></filter>
  </defs>
  <rect width="1200" height="900" fill="url(#bg)"/>
  <circle cx="1100" cy="0" r="280" fill="#62b5d8" opacity=".18"/>
  <circle cx="0" cy="880" r="260" fill="#efd477" opacity=".12"/>
  <image x="70" y="64" width="76" height="76" xlink:href="../../assets/logo.png"/>
  <text x="170" y="106" font-family="PingFang SC, Heiti SC, sans-serif" font-size="25" letter-spacing="4" fill="#b9d4e4">号捕手 · 桌面端文章整理工具</text>
  <text x="70" y="250" font-family="PingFang SC, Heiti SC, sans-serif" font-size="92" font-weight="800" fill="#ffffff">号捕手</text>
  <text x="74" y="314" font-family="PingFang SC, Heiti SC, sans-serif" font-size="34" font-weight="700" fill="#f2d475">公开文章，收进本地</text>
  <text x="74" y="382" font-family="PingFang SC, Heiti SC, sans-serif" font-size="28" fill="#d2e2ec">链接收录 · 离线阅读 · 多格式导出</text>

  <g transform="translate(70 470)">
    <rect width="460" height="82" rx="18" fill="#f3d577"/>
    <text x="28" y="54" font-family="PingFang SC, Heiti SC, sans-serif" font-size="39" font-weight="800" fill="#172238">9.9 元 / 30 天</text>
    <text x="28" y="125" font-family="PingFang SC, Heiti SC, sans-serif" font-size="25" fill="#e1edf4">人工开通 · 邮箱验证码登录</text>
    <text x="28" y="181" font-family="PingFang SC, Heiti SC, sans-serif" font-size="25" fill="#e1edf4">99 元 / 360 天 · 不自动续费</text>
  </g>
  <g transform="translate(70 720)">
    <rect width="126" height="46" rx="23" fill="#d8ecf4" opacity=".95"/><text x="63" y="31" text-anchor="middle" font-family="PingFang SC, Heiti SC, sans-serif" font-size="20" font-weight="700" fill="#1b4d70">本地优先</text>
    <rect x="140" width="126" height="46" rx="23" fill="#d8ecf4" opacity=".95"/><text x="203" y="31" text-anchor="middle" font-family="PingFang SC, Heiti SC, sans-serif" font-size="20" font-weight="700" fill="#1b4d70">可恢复任务</text>
    <rect x="280" width="160" height="46" rx="23" fill="#d8ecf4" opacity=".95"/><text x="360" y="31" text-anchor="middle" font-family="PingFang SC, Heiti SC, sans-serif" font-size="20" font-weight="700" fill="#1b4d70">多格式导出</text>
  </g>

  <g filter="url(#shadow)">
    <rect x="650" y="118" width="478" height="574" rx="26" fill="#fff"/>
    <image x="650" y="118" width="478" height="574" preserveAspectRatio="xMidYMid slice" clip-path="url(#screenClip)" xlink:href="../../assets/screenshots/article-capture.png"/>
  </g>
  <rect x="708" y="624" width="264" height="58" rx="29" fill="#143d56" opacity=".95"/>
  <circle cx="740" cy="653" r="9" fill="#7de2a7"/>
  <text x="761" y="663" font-family="PingFang SC, Heiti SC, sans-serif" font-size="25" font-weight="700" fill="#fff">成功 1 · 失败 0</text>
  <text x="70" y="850" font-family="PingFang SC, Heiti SC, sans-serif" font-size="24" fill="#a9c8d9">会员服务：member.abssqr.com  ·  公开文章链接即可开始</text>
</svg>
