<svg xmlns="http://www.w3.org/2000/svg" xmlns:xlink="http://www.w3.org/1999/xlink" width="1080" height="1440" viewBox="0 0 1080 1440">
  <defs>
    <linearGradient id="bg" x1="0" y1="0" x2="1" y2="1">
      <stop offset="0" stop-color="#f7f4ec"/>
      <stop offset="1" stop-color="#e9f1f4"/>
    </linearGradient>
    <clipPath id="screenClip"><rect x="72" y="448" width="936" height="624" rx="30"/></clipPath>
    <filter id="shadow" x="-20%" y="-20%" width="140%" height="150%"><feDropShadow dx="0" dy="18" stdDeviation="18" flood-color="#172033" flood-opacity=".18"/></filter>
  </defs>
  <rect width="1080" height="1440" fill="url(#bg)"/>
  <circle cx="1020" cy="80" r="210" fill="#b9dded" opacity=".38"/>
  <circle cx="40" cy="1230" r="230" fill="#e8d49e" opacity=".28"/>
  <image x="72" y="74" width="76" height="76" xlink:href="../../assets/logo.png"/>
  <text x="172" y="108" font-family="PingFang SC, Heiti SC, sans-serif" font-size="25" letter-spacing="5" fill="#516275">号捕手 · LOCAL ARCHIVE</text>
  <text x="72" y="250" font-family="PingFang SC, Heiti SC, sans-serif" font-size="72" font-weight="800" fill="#152236">公众号文章，</text>
  <text x="72" y="338" font-family="PingFang SC, Heiti SC, sans-serif" font-size="72" font-weight="800" fill="#1d5ed1">真正抓到本地</text>
  <text x="76" y="395" font-family="PingFang SC, Heiti SC, sans-serif" font-size="29" fill="#536579">一条公开链接 → 可检索 · 可离线 · 可导出</text>

  <g filter="url(#shadow)">
    <rect x="72" y="448" width="936" height="624" rx="30" fill="#fff"/>
    <image x="72" y="448" width="936" height="624" preserveAspectRatio="xMidYMid slice" clip-path="url(#screenClip)" xlink:href="../../assets/screenshots/article-capture.png"/>
  </g>
  <rect x="126" y="978" width="330" height="64" rx="32" fill="#143d56" opacity=".94"/>
  <circle cx="163" cy="1010" r="10" fill="#7de2a7"/>
  <text x="190" y="1021" font-family="PingFang SC, Heiti SC, sans-serif" font-size="28" font-weight="700" fill="#fff">成功 1 · 失败 0</text>

  <g transform="translate(72 1158)">
    <rect width="280" height="72" rx="36" fill="#152236"/>
    <text x="140" y="46" text-anchor="middle" font-family="PingFang SC, Heiti SC, sans-serif" font-size="27" font-weight="700" fill="#fff">公开内容整理</text>
    <rect x="300" width="280" height="72" rx="36" fill="#d5e8f2"/>
    <text x="440" y="46" text-anchor="middle" font-family="PingFang SC, Heiti SC, sans-serif" font-size="27" font-weight="700" fill="#1c4c69">本地优先</text>
    <rect x="600" width="336" height="72" rx="36" fill="#f0d994"/>
    <text x="768" y="46" text-anchor="middle" font-family="PingFang SC, Heiti SC, sans-serif" font-size="27" font-weight="700" fill="#5b4510">9.9 元 / 30 天起</text>
  </g>
  <text x="72" y="1328" font-family="PingFang SC, Heiti SC, sans-serif" font-size="25" fill="#526174">macOS Apple Silicon 当前可试用 · Windows 候选验证中</text>
  <text x="72" y="1378" font-family="PingFang SC, Heiti SC, sans-serif" font-size="24" fill="#526174">会员服务：member.abssqr.com</text>
</svg>
